REM Ripping Tool: trurip

FILE "Seiryuu Densetsu Monbit (1991)(Hudson)(JP)[AKA Monbit - Saint Dragon Legend].img" BINARY
  TRACK 01 AUDIO
    INDEX 01 00:00:00
  TRACK 02 MODE1/2352
    INDEX 00 00:44:66
    INDEX 01 00:47:71
  TRACK 03 AUDIO
    INDEX 00 06:25:30
    INDEX 01 06:27:30
  TRACK 04 AUDIO
    INDEX 01 07:30:61
  TRACK 05 MODE1/2352
    INDEX 00 11:59:24
    INDEX 01 12:02:23

REM DISC HASHES
REM CRC32 : 7b03e5c4
REM MD5   : 4d0e24b22d5679149a886cc0e6cf933a
REM SHA1  : 63e9255d6da44f1a754e79a2b05df41239e3e0f1

REM Gap Append Method: Prev [crc32]
REM Trk 01: 2524e312
REM Trk 02: 4cbe52e0
REM Trk 03: 94f85453
REM Trk 04: b4ac811d
REM Trk 05: d1570837

REM Gap Append Method: Prev [md5]
REM Trk 01: 7391f7608f9f0ea490f40f32c57ef641
REM Trk 02: aa8c30218f7d883558057a26e4ec4ee0
REM Trk 03: b86c93590552661b6c2f40437798a1a1
REM Trk 04: 9eb66c2e93b1e9dd07dfaabfabca05b9
REM Trk 05: 85fed6e090154a3f734d743166c94cd4

REM Gap Append Method: Prev [sha1]
REM Trk 01: 8e4033042eecb0f93b20ded41b64878f6868f2ae
REM Trk 02: 4e7586774aed9e9274e11b98c623e69100ea8e93
REM Trk 03: 8d961139bd82d10a6f9ec050d4d5e12446dc3b32
REM Trk 04: 26c99631d8577ce063dbc494d0f47e7412061e3a
REM Trk 05: a20459d9bb4e852b25be75c2d2e7f6aef38da50a

REM Gap Append Method: None [crc32]
REM Trk 01: 50fa91fb
REM Trk 02: c79a12b6
REM Trk 03: 94f85453
REM Trk 04: b8b9dccc
REM Trk 05: d1570837
REM Gap 02: 9425a9e7
REM Gap 03: 7abe247f
REM Gap 05: ba518618

REM Gap Append Method: None [md5]
REM Trk 01: 0d644a2fa3ec9fc80ce1240cc63c8e8e
REM Trk 02: 00c7eb5f7709a1ab8c536f698e7138a4
REM Trk 03: b86c93590552661b6c2f40437798a1a1
REM Trk 04: 8282668a52dc294a24670251799d542e
REM Trk 05: 85fed6e090154a3f734d743166c94cd4
REM Gap 02: a2633abbc77bcbc330d2d2e49711051b
REM Gap 03: 9df204fbc98bb8965081cb30a89715fc
REM Gap 05: 1ad7168ff400699424c9cdca22d687fe

REM Gap Append Method: None [sha1]
REM Trk 01: 908b488db4ab0ef66b65cf93a7daaa20542df57d
REM Trk 02: f1595eebae708556a11351beca135aac654d5368
REM Trk 03: 8d961139bd82d10a6f9ec050d4d5e12446dc3b32
REM Trk 04: d0ad9d8953f1141a0791af66de3c8b5ff0b6b10c
REM Trk 05: a20459d9bb4e852b25be75c2d2e7f6aef38da50a
REM Gap 02: 11abf3bdc5b1b27ab93690b7c51efad0f7dd1a7c
REM Gap 03: cbe29e0bd725ef1194f8c47619dd42078e841de2
REM Gap 05: 8fb577d98dbeff5b6de1a42a439967ba949568ba

REM Gap Append Method: Next [crc32]
REM Trk 01: 50fa91fb
REM Trk 02: 55098954
REM Trk 03: cea4c7aa
REM Trk 04: b8b9dccc
REM Trk 05: 99f53b6c

REM Gap Append Method: Next [md5]
REM Trk 01: 0d644a2fa3ec9fc80ce1240cc63c8e8e
REM Trk 02: 1b35ace8dac221d62fd258c517c3d190
REM Trk 03: 8eb81bf2e70e9d16fbdd349d30a2b91e
REM Trk 04: 8282668a52dc294a24670251799d542e
REM Trk 05: 842364f0b5ca981f1f90ac0c7dc54b59

REM Gap Append Method: Next [sha1]
REM Trk 01: 908b488db4ab0ef66b65cf93a7daaa20542df57d
REM Trk 02: 6330e758a082805b678e19ab9e20c418bfa20f28
REM Trk 03: 623d01d922d84048d0fdcd2726892de8d6ba8596
REM Trk 04: d0ad9d8953f1141a0791af66de3c8b5ff0b6b10c
REM Trk 05: eeeeb51502b9fef7106d7cf3ed7b2ec6078a3733

